<svg xmlns="http://www.w3.org/2000/svg" width="673.83" height="70.204" viewBox="0 0 673.83 70.204">
  <g id="Ship.Link" transform="translate(-253 -805.913)">
    <path id="K" d="M892.98,833.074,926.83,876H907.674l-25.905-33.158L860,861.178V876H844V806h16v36.756c14.047-12.2,28.814-24.871,42.884-36.756h21.877Z" fill="#f9fbfc"/>
    <path id="N" d="M826.626,806c0,58.868.814,57.7-2.388,62.246-6.544,9.275-21.517,10.173-30.722,3.641-4.511-3.2-3.091-1.7-23.132-50.722-1.706-3.438-8.384-3.223-8.384,1.114V876H746.374c0-59.273-.814-57.561,2.445-62.075,6.571-9.089,22.254-9.806,31.463-3.17,4.667,3.364,3.206,1.809,22.959,50.337,1.7,3.661,7.759,3.872,7.759-1.028V806Z" fill="#f9fbfc"/>
    <path id="I" d="M731,876H715V806h16Z" fill="#f9fbfc"/>
    <path id="L" d="M700,863.405V876H665.616c-15.6,0-31.616-9.342-31.616-24.5V806h15.648C649.648,870.147,641.481,863.405,700,863.405Z" fill="#f9fbfc"/>
    <path id="dot" d="M593.8,841.429c0,19.128-28.935,19.155-28.935,0C564.863,822.3,593.8,822.275,593.8,841.429Z" fill="#f9fbfc"/>
    <path id="P" d="M502.347,806c25.242,0,35.5,20.354,11.973,34.1L471,862.462V876H455V806Zm7.429,15.905c-1.435-4.609-9.461-3.449-39.776-3.449V847.2C503.754,829.534,511.375,827.084,509.776,821.905Z" fill="#f9fbfc"/>
    <path id="I-2" data-name="I" d="M439,876H423V806h16Z" fill="#f9fbfc"/>
    <path id="H" d="M351,876H335V806h16v25h38V806h15v70H389V843H351Z" fill="#f9fbfc"/>
    <path id="S" d="M306.082,841.241c14.357,5.758,16.776,18.836,8.175,27.39-9.184,9.13-21.854,6.889-61.257,6.889V863.035c44.762,0,43.975.4,47.084-1.1,2.74-1.324,4.334-3.5,2.866-6.157-1.4-2.533-3.03-2.652-36.679-16.69-14.041-5.725-16.518-18.243-8.122-26.371,8.94-8.658,21.564-6.582,56.851-6.582v12.484c-39.812,0-40.259-.4-43.262,1.064-2.613,1.276-3.859,3.208-2.229,5.573C270.88,827.239,270.843,826.8,306.082,841.241Z" fill="#f9fbfc"/>
  </g>
</svg>
