<svg xmlns="http://www.w3.org/2000/svg" width="727.538" height="605.195" viewBox="0 0 727.538 605.195">
  <g id="Group_2" data-name="Group 2" transform="translate(-1556.659 -275.902)">
    <g id="Ship.Link" transform="translate(1333 4.981)">
      <path id="K" d="M892.98,833.074,926.83,876H907.674l-25.905-33.158L860,861.178V876H844V806h16v36.756c14.047-12.2,28.814-24.871,42.884-36.756h21.877Z" fill="#f9fbfc"/>
      <path id="N" d="M826.626,806c0,58.868.814,57.7-2.388,62.246-6.544,9.275-21.517,10.173-30.722,3.641-4.511-3.2-3.091-1.7-23.132-50.722-1.706-3.438-8.384-3.223-8.384,1.114V876H746.374c0-59.273-.814-57.561,2.445-62.075,6.571-9.089,22.254-9.806,31.463-3.17,4.667,3.364,3.206,1.809,22.959,50.337,1.7,3.661,7.759,3.872,7.759-1.028V806Z" fill="#f9fbfc"/>
      <path id="I" d="M731,876H715V806h16Z" fill="#f9fbfc"/>
      <path id="L" d="M700,863.405V876H665.616c-15.6,0-31.616-9.342-31.616-24.5V806h15.648C649.648,870.147,641.481,863.405,700,863.405Z" fill="#f9fbfc"/>
      <path id="dot" d="M593.8,841.429c0,19.128-28.935,19.155-28.935,0C564.863,822.3,593.8,822.275,593.8,841.429Z" fill="#f9fbfc"/>
      <path id="P" d="M502.347,806c25.242,0,35.5,20.354,11.973,34.1L471,862.462V876H455V806Zm7.429,15.905c-1.435-4.609-9.461-3.449-39.776-3.449V847.2C503.754,829.534,511.375,827.084,509.776,821.905Z" fill="#f9fbfc"/>
      <path id="I-2" data-name="I" d="M439,876H423V806h16Z" fill="#f9fbfc"/>
      <path id="H" d="M351,876H335V806h16v25h38V806h15v70H389V843H351Z" fill="#f9fbfc"/>
      <path id="S" d="M306.082,841.241c14.357,5.758,16.776,18.836,8.175,27.39-9.184,9.13-21.854,6.889-61.257,6.889V863.035c44.762,0,43.975.4,47.084-1.1,2.74-1.324,4.334-3.5,2.866-6.157-1.4-2.533-3.03-2.652-36.679-16.69-14.041-5.725-16.518-18.243-8.122-26.371,8.94-8.658,21.564-6.582,56.851-6.582v12.484c-39.812,0-40.259-.4-43.262,1.064-2.613,1.276-3.859,3.208-2.229,5.573C270.88,827.239,270.843,826.8,306.082,841.241Z" fill="#f9fbfc"/>
    </g>
    <g id="Logo" transform="translate(1333 4.981)">
      <path id="Small_Ring" data-name="Small Ring" d="M712.566,686.781c-35.379,42.182-66.023,49.368-80.518,64.925C606.4,779.08,575,753,585.565,753c19.925,0,22.435.9,22.435-2.5,0-23.409.953-24.5-2.5-24.5H585c-1.6,0-3.059-1.8-2-3,11.766-13.321,28.456-11.584,45.752-6.976,20.217-6.995,46.761-21.048,60.791-35.352Z" fill="#f9fbfc"/>
      <rect id="Link" width="44.69" height="19.403" rx="3.33" transform="translate(558 729.793)" fill="#f9fbfc"/>
      <g id="Larg_Ring" data-name="Larg Ring">
        <path id="Path_1" data-name="Path 1" d="M516.967,295.318c-236.07-91.86-372.98,91.14-243.2,291.22,96.3,148.489,254.759,165.221,254.86,165.28C555.681,778.872,584.051,753,574,753c-26-1-21,5-21.523-24.212,0-4.444.523-2.788,21.9-3.33,10.355,0-10.889-23.086-42.43-8.88-3.043,1.37-80.763-16.014-137.45-68.18-104.96-96.6-132.84-221.16-68.45-288.5,51.66-54.01,216.74-72.36,351.83,88.46,4.018,4.91-1.011,4.6,19.3-.035C673.2,399.238,589.384,323.5,516.967,295.318Zm46,32.51C332.135,224.341,167,384,313.027,595.988c44.957,65.264,101.8,112.577,178.19,140.56a1.216,1.216,0,0,1-.72,2.32c-137.01-36.46-236.08-169.882-250.34-260.49C205,255,450.417,232.728,603.267,350.418A279.543,279.543,0,0,0,562.967,327.828Z" fill="#f9fbfc"/>
      </g>
      <path id="Ship_Deck" data-name="Ship Deck" d="M951.04,411.382c-1.324,16.416-9.24,64.129-56.109,108.954-43.135,41.248-126.642,63.65-36.523,121.939,44.408,28.722,20.28,85.229-81.473,55.431-8.428-2.468-247.965-64.474-324.9-87.084,0,0,115.965,11.36,258.73,19.2,71.138,3.911,45.44-32.163,62.117-44.219C651.041,584.46,581,582,581,582s80.787-4.356,200.92-8.35c7.423-5.843,14.788-12.125,21.829-18.877,44.455-42.634,124.923-85.287,52.338-77.238-8.311.968-12.244,2.051-12.087-.733l.005-3.637c.077-11.206.48-12.484-13.657-10.121-34.939,5.839-33.764,2.59-33.764,13.135,0,12.075,4.307,8.082-28.576,13.266-239.562,37.765-404.359,63.672-404.359,63.672s72.547-17.424,245.261-53.6c72.252-13.688,44.6-31.613,82.837-39.993C959.449,401.03,951.735,402.831,951.04,411.382Z" fill="#f9fbfc"/>
      <g id="Ship_Bridge" data-name="Ship Bridge">
        <g id="Group_1" data-name="Group 1">
          <path id="Path_2" data-name="Path 2" d="M422.154,509.346,401,506.582l-.009-9.143a1.112,1.112,0,0,0-.967-1.1L388,494.755V447.249h-2c0,5.514,0,21.342,0,47.226-16.816-2.223-12.052-3.275-22.827,3.291a1.415,1.415,0,0,0-.545,1.016c-.632,3.218.847,2.737-5.686,1.781a4.971,4.971,0,0,0-3.186.6L334,512.485l.09,35.633c26.742-5.835,33.484-6.623,89.91-19.31l-.019-17.382A2.1,2.1,0,0,0,422.154,509.346ZM349.4,519.1c-.019,1.52-.489,1.41-8.939,6.34-3.72,2.17-3.021-4.7-3.061-8.04-.019-1.55.491-1.46,9.031-6.41C350.209,508.773,349.419,515.773,349.4,519.1Zm15.031-19.77c2.179-1.26,4.75-3.25,4.75-1.25-.01,4.79-.42,4.31-5.16,3.7C364,499.993,363.889,499.653,364.429,499.333Zm12.08,19.73c0,3.05-3.321,1.84-12.151.76-2.319-.28-1.75-2.3-1.759-10.44,0-3.09,3.35-1.84,12.2-.68C377.148,509,376.539,511.083,376.509,519.063Zm4.33-18.26c0,1.31-1.45.79-5.231.33-1.059-.13-.759-1.18-.759-4.5,0-1.33,1.42-.8,5.25-.29C381.108,496.473,380.849,497.313,380.839,500.8Zm3.62.79c0-2.76-.37-4.66.97-4.5,4.4.57,5.04.43,5.04,1.42-.01,2.67.36,4.61-.99,4.46C385.289,502.443,384.459,502.593,384.459,501.593Zm14.38,20.52c0,3.05-3.35,1.84-12.14.76-2.36-.29-1.761-2.42-1.77-10.44,0-3.08,3.33-1.86,12.21-.69C399.559,512.073,398.879,514.363,398.839,522.113Zm.82-18.79c0,1.31-1.4.79-5.23.33-1.01-.12-.75-1.04-.76-4.49,0-1.34,1.479-.8,5.26-.3C399.938,499,399.679,499.863,399.659,503.323Zm20.58,21.6c0,3.04-3.3,1.84-12.14.76-2.42-.32-1.76-2.62-1.77-10.44,0-3.08,3.33-1.86,12.21-.69C420.959,514.863,420.279,517.193,420.239,524.923Z" fill="#f9fbfc"/>
        </g>
      </g>
      <rect id="Anchor_Hole" data-name="Anchor Hole" width="38.385" height="10.778" rx="4.749" transform="translate(801.272 476.031) rotate(-6.97)" fill="#f9fbfc"/>
    </g>
  </g>
</svg>
