<?xml version="1.0" encoding="UTF-8"?>
<!DOCTYPE svg PUBLIC "-//W3C//DTD SVG 1.1//EN" "http://www.w3.org/Graphics/SVG/1.1/DTD/svg11.dtd">
<!-- Creator: CorelDRAW 2018 (64-Bit Evaluation Version) -->
<svg xmlns="http://www.w3.org/2000/svg" xml:space="preserve" width="21.1284mm" height="23.4695mm" version="1.1" style="shape-rendering:geometricPrecision; text-rendering:geometricPrecision; image-rendering:optimizeQuality; fill-rule:evenodd; clip-rule:evenodd"
viewBox="0 0 2112.84 2346.95"
 xmlns:xlink="http://www.w3.org/1999/xlink">
 <defs>
  <style type="text/css">
   <![CDATA[
    .fil1 {fill:#27324A}
    .fil0 {fill:#ED6C76}
   ]]>
  </style>
 </defs>
 <g id="Layer_x0020_1">
  <metadata id="CorelCorpID_0Corel-Layer"/>
  <g id="_1888546156720">
   <path id="path1566" class="fil0" d="M539.19 874.16c-217.68,0 -394.52,176.84 -394.52,394.87l0 484.08 214.49 0 0 -485.68c1.37,-99.37 81.57,-179.24 180.03,-179.24 100.17,0 180.84,81.01 180.84,180.84l0 484.08 214.83 0 0 -484.08c0,-218.14 -176.73,-394.87 -395.67,-394.87zm517.23 1301.77l-690.53 0c-107.25,0 -194.87,-87.85 -194.87,-194.87l0 -118.76c-62.4,-5.59 -142.38,-75.76 -171.02,-138.05 0,85.68 0,171.13 0,256.81 0,201.37 165.09,365.89 365.89,365.89l690.53 0 0 -171.02zm-885.17 -1315.23c-80.32,55.33 -139.08,139.64 -161.32,237.88l-9.59 0 -0.22 -732.35c0,-201.37 164.74,-366.23 365.88,-366.23l690.42 0.06 0 171.59 -690.53 0.06c-107.13,0 -194.87,87.62 -194.87,194.75 0,164.97 0.23,329.49 0.23,494.35l0 -0.11zm549 -211.18c0,24.41 -3.87,48.26 -11.29,71.3 -7.42,23.39 -18.14,43.47 -32.97,60.93 -14.61,17.22 -33.55,30.35 -55.79,39.81 -22.59,9.47 -49.52,12.1 -80.66,8.22 -30.92,-3.77 -57.85,-13.01 -80.1,-27.84 -22.59,-14.94 -41.18,-32.63 -55.79,-53.39 -14.83,-21.11 -25.78,-43.81 -33.2,-69.03 -7.07,-24.87 -10.95,-49.74 -10.95,-74.04 0,-24.08 3.88,-47.92 10.95,-70.51 7.42,-23.16 18.37,-43.13 33.2,-60.13 14.61,-17.79 33.2,-30.69 55.79,-39.47 22.25,-9.13 49.29,-11.75 80.1,-7.99 31.14,3.77 58.18,13.01 80.66,27.61 22.24,14.26 41.18,31.72 55.79,53.05 14.83,20.54 25.55,43.24 32.97,68.12 7.42,24.3 11.29,49.17 11.29,73.13l0 0.23z"/>
   <path id="path1568" class="fil1" d="M1558.47 874.16c217.69,0 394.53,176.84 394.53,394.87l0 484.08 -214.49 0 0 -485.68c-1.26,-99.37 -81.46,-179.24 -180.04,-179.24 -100.17,0 -180.83,81.01 -180.83,180.84l0 484.08 -214.94 0 0 -484.08c0,-218.14 176.83,-394.87 395.77,-394.87zm554.03 850.09c-28.64,62.29 -108.62,132.34 -171.02,138.05l0 118.76c0,107.25 -87.63,194.87 -194.87,194.87l-690.19 0 0 171.02 690.19 0c201.03,0 366.23,-165.2 366.23,-365.89 0,-85.79 -0.23,-170.9 -0.23,-256.81l-0.11 0zm-1056.08 -1552.6l0 -171.59 690.19 0.05c201.37,0 366.23,164.75 366.23,366.23l-0.23 732.35 -9.81 -0.11c-22.25,-98.12 -81,-182.55 -161.32,-237.88l0 -494.36c0,-107.01 -87.74,-194.75 -194.87,-194.75l-690.19 0.06zm321.11 477.87c0,24.41 3.88,48.26 11.29,71.3 7.42,23.39 18.03,43.47 32.97,60.93 14.61,17.22 33.55,30.35 55.79,39.81 22.59,9.47 49.52,12.1 80.67,8.22 30.8,-3.77 57.84,-13.01 80.09,-27.84 22.59,-14.94 41.3,-32.63 55.79,-53.39 14.83,-21.11 25.78,-43.81 33.2,-69.03 7.07,-24.87 10.95,-49.74 10.95,-74.04 0,-24.08 -3.88,-47.92 -10.95,-70.51 -7.42,-23.16 -18.37,-43.13 -33.2,-60.13 -14.49,-17.79 -33.2,-30.69 -55.79,-39.47 -22.25,-9.13 -49.29,-11.75 -80.09,-7.99 -31.15,3.77 -58.19,13.01 -80.67,27.61 -22.24,14.26 -41.18,31.72 -55.79,53.05 -14.83,20.54 -25.55,43.24 -32.97,68.12 -7.41,24.3 -11.29,49.17 -11.29,73.13l0 0.23z"/>
  </g>
 </g>
</svg>
