<?xml version="1.0" encoding="UTF-8"?>
<!DOCTYPE svg PUBLIC "-//W3C//DTD SVG 1.1//EN" "http://www.w3.org/Graphics/SVG/1.1/DTD/svg11.dtd">
<!-- Creator: CorelDRAW 2018 (64-Bit Evaluation Version) -->
<svg xmlns="http://www.w3.org/2000/svg" xml:space="preserve" width="68.2719mm" height="17.7574mm" version="1.1" style="shape-rendering:geometricPrecision; text-rendering:geometricPrecision; image-rendering:optimizeQuality; fill-rule:evenodd; clip-rule:evenodd"
viewBox="0 0 6827.2 1775.74"
 xmlns:xlink="http://www.w3.org/1999/xlink">
 <defs>
  <style type="text/css">
   <![CDATA[
    .fil1 {fill:#27324A}
    .fil0 {fill:#ED6C76}
   ]]>
  </style>
 </defs>
 <g id="Layer_x0020_1">
  <metadata id="CorelCorpID_0Corel-Layer"/>
  <g id="_1888541389632">
   <path id="path1453" class="fil0" d="M3084.29 0l522.27 0 0 129.77 -522.34 0c-81,0 -147.39,66.32 -147.39,147.39l0 376.48c-38.16,-23.55 -82.21,-38.87 -129.44,-43.09l0 -333.45c0,-152.5 124.53,-277.03 276.9,-277.03l0 -0.07zm-2121.9 983.07c0,25.15 3.89,50.37 11.68,75.07 7.47,25.21 18.77,47.36 33.9,67.34 15.13,19.54 34.79,35.49 57.76,48.13 23.37,12.58 51.26,18.77 83.37,18.77 32.11,0 59.81,-6.19 82.85,-18.77 23.49,-12.57 42.64,-28.59 57.77,-48.13 15.26,-19.98 26.49,-42.13 34.28,-67.34 7.4,-24.7 11.23,-49.92 11.23,-75.07 0,-24.83 -3.89,-49.91 -11.23,-74.23 -7.79,-24.83 -19.02,-46.85 -34.28,-66.39 -15.13,-19.98 -34.28,-35.68 -57.77,-47.81 -23.04,-12.12 -50.74,-18.19 -82.85,-18.19 -32.11,0 -59.94,6.07 -83.37,18.19 -23.04,12.13 -42.63,27.83 -57.76,47.81 -15.13,19.54 -26.43,41.56 -33.9,66.39 -7.79,24.38 -11.68,49.4 -11.68,74.23zm-163.73 0c0,-50.87 9.19,-97.27 27.9,-138.96 18.19,-41.3 42.96,-76.79 74.23,-106.34 31.22,-29.56 68.56,-52.53 111.58,-68.68 42.51,-16.03 88.54,-23.88 136.79,-23.88 48.2,0 93.77,7.85 136.73,23.88 42.96,16.08 79.92,39.12 111.2,68.68 31.21,29.55 56.42,65.04 74.62,106.34 18.25,41.69 27.38,88.09 27.38,138.96 0,51.2 -9.07,97.67 -27.38,139.8 -18.2,41.68 -43.41,77.74 -74.62,107.68 -31.28,29.94 -68.18,53.43 -111.2,70.34 -43.02,17.3 -88.53,25.6 -136.73,25.6 -48.19,0 -94.21,-8.23 -136.79,-25.6 -43.02,-16.98 -80.36,-40.47 -111.58,-70.34 -31.27,-29.94 -56.1,-66.06 -74.23,-107.68 -18.71,-42.2 -27.9,-88.6 -27.9,-139.8zm-182.11 -10.66c27.77,-27.38 49.09,-59.49 63.32,-96.45 14.3,-36.44 21.7,-76.34 21.7,-119.81 0,-43.02 -8.23,-83.36 -24.7,-121.15 -16.02,-38.17 -38.17,-71.24 -66.38,-98.94 -27.83,-27.83 -60.84,-49.98 -98.62,-66.51 -37.79,-16.47 -78.58,-24.71 -121.6,-24.71l-390.27 0.07 0 876.6 167.62 0 0 -728.07 204.84 0c26.04,0 49.53,5.18 69.51,14.75 19.53,9.45 36.45,21.7 49.92,36.96 13.91,15.19 24.32,32.49 31.21,52.09 7.41,19.53 10.92,39 10.92,58.98 0,19.98 -3.07,39.51 -8.24,57.76 -5.68,18.2 -14.3,34.79 -26.04,49.09 -11.24,14.3 -26.49,25.6 -44.68,33.83 -18.26,8.75 -39.96,12.58 -64.79,12.58l-134.94 0 0 151.15 0.38 0c18.32,323.88 406.86,260.95 406.86,260.95l0 -166.29c-8.68,-4.78 -208.34,24.45 -239.62,-98.04 22.66,-3.9 68.11,-12.64 87.64,-20.05 42.51,-15.63 78.26,-36.83 105.96,-64.66l0 -0.13zm2735.77 -481.1c0,18.45 -2.94,36.52 -8.56,54.01 -5.61,17.74 -13.72,32.87 -24.95,46.15 -10.98,13.02 -25.35,22.98 -42.2,30.12 -17.04,7.15 -37.53,9.13 -61.08,6.26 -23.37,-2.87 -43.79,-9.83 -60.64,-21.06 -17.05,-11.3 -31.22,-24.71 -42.2,-40.41 -11.23,-15.96 -19.53,-33.13 -25.15,-52.21 -5.36,-18.83 -8.29,-37.6 -8.29,-56.05 0,-18.19 2.93,-36.26 8.29,-53.3 5.62,-17.49 13.92,-32.68 25.15,-45.45 11.05,-13.47 25.15,-23.23 42.2,-29.87 16.85,-6.89 37.27,-8.94 60.64,-6.06 23.55,2.87 43.98,9.89 61.08,20.93 16.85,10.79 31.22,24 42.2,40.15 11.23,15.51 19.27,32.68 24.95,51.52 5.62,18.44 8.56,37.21 8.56,55.4l0 -0.13zm-136.99 169.99c-164.68,0 -298.47,133.79 -298.47,298.8l0 366.33 162.26 -0.07 0 -367.48c0.96,-75.19 61.72,-135.64 136.21,-135.64 75.84,0 136.86,61.34 136.86,136.86l0 366.33 162.52 -0.07 0 -366.33c0,-165 -133.67,-298.8 -299.38,-298.8l0 0.07zm-435.33 0c-165,0 -298.79,133.79 -298.79,298.8l0 366.33 162 -0.07 0 -366.33c0,-75.51 61.34,-136.85 136.86,-136.85 34.02,0 64.08,12.63 88.34,33.12 14.11,-54.32 41.11,-104.3 78.58,-144.19 -47.56,-32.17 -105.2,-50.88 -166.92,-50.88l-0.07 0.07zm-994.75 321.77c0,25.15 3.89,50.37 11.68,75.07 7.47,25.21 18.76,47.36 33.89,67.34 15.13,19.54 34.79,35.49 57.77,48.13 23.43,12.58 51.26,18.77 83.37,18.77 32.1,0 59.87,-6.19 82.85,-18.77 23.49,-12.57 42.64,-28.59 57.77,-48.13 15.25,-19.98 26.49,-42.13 34.27,-67.34 7.41,-24.7 11.24,-49.92 11.24,-75.07 0,-24.83 -3.9,-49.91 -11.24,-74.23 -7.78,-24.83 -19.02,-46.85 -34.27,-66.39 -15.13,-19.98 -34.28,-35.68 -57.77,-47.81 -23.04,-12.12 -50.75,-18.19 -82.85,-18.19 -32.11,0 -59.94,6.07 -83.37,18.19 -22.98,12.13 -42.64,27.83 -57.77,47.81 -15.13,19.54 -26.42,41.56 -33.89,66.39 -7.73,24.38 -11.68,49.4 -11.68,74.23zm-163.73 0c0,-50.87 9.19,-97.27 27.83,-138.96 18.19,-41.3 42.96,-76.79 74.24,-106.34 31.21,-29.56 68.55,-52.53 111.57,-68.68 42.52,-16.03 88.54,-23.88 136.73,-23.88 48.19,0 93.77,7.85 136.79,23.88 42.96,16.08 79.92,39.12 111.2,68.68 31.21,29.55 56.43,65.04 74.62,106.34 18.32,41.69 27.38,88.09 27.38,138.96 0,51.2 -9.06,97.67 -27.38,139.8 -18.19,41.68 -43.34,77.74 -74.62,107.68 -31.28,29.94 -68.17,53.43 -111.2,70.34 -43.02,17.3 -88.53,25.6 -136.79,25.6 -48.19,0 -94.21,-8.23 -136.73,-25.6 -43.02,-16.98 -80.36,-40.47 -111.57,-70.34 -31.28,-29.94 -56.05,-66.06 -74.24,-107.68 -18.7,-42.2 -27.83,-88.6 -27.83,-139.8zm1985.04 792.64l-522.27 0.03c-151.92,0 -276.9,-124.54 -276.9,-276.9l0 -89.94 129.44 0 0 89.87c0,80.94 66.26,147.45 147.39,147.45l522.34 0.04 0 129.45z"/>
   <path id="path1453_0" class="fil1" d="M3606.57 0l522.27 0c152.5,0 277.09,124.6 277.09,277.03l0 332.63c-46.85,2.42 -91.02,15.7 -129.63,37.34l0 -369.84c0,-81.13 -66.33,-147.39 -147.46,-147.39l-522.27 0 0 -129.77zm243.07 491.31c0,18.45 2.94,36.52 8.55,54.01 5.62,17.74 13.73,32.87 24.96,46.15 10.98,13.02 25.34,22.98 42.2,30.12 17.04,7.15 37.53,9.13 61.08,6.26 23.37,-2.87 43.79,-9.83 60.64,-21.06 17.05,-11.3 31.22,-24.71 42.2,-40.41 11.23,-15.96 19.53,-33.13 25.15,-52.21 5.36,-18.83 8.29,-37.6 8.29,-56.05 0,-18.19 -2.93,-36.26 -8.29,-53.3 -5.62,-17.49 -13.92,-32.68 -25.15,-45.45 -11.05,-13.47 -25.15,-23.23 -42.2,-29.87 -16.85,-6.89 -37.27,-8.94 -60.64,-6.06 -23.55,2.87 -44.04,9.89 -61.08,20.93 -16.86,10.79 -31.22,24 -42.2,40.15 -11.23,15.51 -19.27,32.68 -24.96,51.52 -5.61,18.44 -8.55,37.21 -8.55,55.4l0 -0.13zm136.98 169.99c164.69,0 298.48,133.79 298.48,298.8l0 366.33 -162.32 -0.07 0 -367.48c-0.9,-75.19 -61.6,-135.64 -136.16,-135.64 -75.83,0 -136.85,61.34 -136.85,136.86l0 366.33 -162.64 -0.07 0 -366.33c0,-165 133.79,-298.8 299.49,-298.8l0 0.07zm435.27 0c165.01,0 298.8,133.79 298.8,298.8l0 366.33 -161.94 -0.07 0 -366.33c0,-75.51 -61.41,-136.85 -136.86,-136.85 -34.08,0 -64.15,12.63 -88.4,33.12 -14.11,-54.32 -41.11,-104.3 -78.45,-144.19 47.49,-32.17 105.19,-50.88 166.85,-50.88l0 0.07zm2381.82 180.2c-15.64,-43.41 -37.27,-79.41 -65.04,-108.52 -27.83,-29.04 -60.77,-51.19 -98.56,-66 -38.17,-14.3 -79.47,-21.7 -124.15,-21.7 -48.19,0 -93.39,8.23 -135.07,24.83 -41.3,16.47 -77.3,39.51 -107.68,69.38 -30.39,29.94 -54.26,66.39 -72.07,109.03 -17.3,42.51 -26.04,89.36 -26.04,141.51 0,52.54 8.74,99.84 26.04,141.58 17.81,41.24 41.68,76.41 72.45,105.01 30.9,28.72 67.34,50.74 109.47,66.44 42.07,15.64 88.09,23.37 138.07,23.37 82.02,0 170.18,-22.98 248.31,-91.6l-88.09 -103.73c-13.92,14.36 -52.15,37.79 -59.56,41.68 -27.76,14.75 -61.66,22.15 -102,22.15 -23.04,0 -45.64,-3.89 -66.83,-12.13 -21.7,-7.85 -40.79,-18.76 -57.77,-32.55 -16.85,-13.91 -30.77,-30.38 -40.79,-49.92 -10.4,-19.15 -16.47,-40.47 -18.19,-63.38 -5.68,-62.62 0,-115.54 0,-115.54 3.38,-45.57 22.15,-82.98 55.6,-112.02 33.32,-29.05 74.62,-43.34 122.81,-43.34 26.04,0 48.58,3.89 67.73,12.57 19.14,8.62 35.17,19.98 47.87,34.28 12.13,14.3 21.57,30.77 27.26,49.53 5.68,18.58 8.74,38.56 8.74,58.98l-274.99 0 0 115.54 434.63 0c0.83,-7.47 1.34,-14.36 1.34,-21.77 0,-6.89 0,-14.3 0,-21.25 0,-58.28 -7.85,-109.03 -23.49,-152.43zm-1280.97 338.56c-12.13,-8.74 -21.71,-20.49 -28.22,-34.79 -6.57,-14.3 -10.78,-30 -13.47,-46.85 -1.65,-14.43 1.35,-79.98 2.18,-123.77l0.51 0 0 -30.77c0,-164.94 -59.11,-277.48 -268.35,-277.48 -31.28,0 -207.07,0.96 -229.67,1.35l0 154.15 198.9 0.38c74.62,0 135.45,-14.3 136.73,85.54 -44.3,0.44 -72.52,2.68 -121.6,7.4 -52.09,4.85 -99.83,14.75 -142.79,30 -43.03,15.51 -78.13,37.34 -105.01,65.94 -27.38,28.73 -41.3,66.83 -41.3,115.54 0,37.34 7.79,69.06 23.49,94.21 15.64,25.54 35.62,45.9 58.98,62.05 23.88,15.64 49.98,26.55 78.13,33.45 27.84,6.51 55.22,10.02 81.26,10.02 60.32,0 121.99,-4.34 182.31,-36.58 -24.71,-38.55 -44.3,-79.85 -54.26,-108.51 -24.7,15.25 -59.49,22.15 -95.94,22.98 -13.47,0 -26.87,-1.22 -40.41,-3.9 -13.46,-3.06 -25.59,-7.4 -36,-13.47 -10.78,-6.51 -19.53,-14.8 -26.49,-25.15 -6.44,-9.95 -9.95,-23.04 -9.95,-38.17 0,-23.87 20.36,-56.49 84.64,-77.3 23.87,-7.85 50.42,-12.57 78.96,-14.81 28.72,-2.17 33.06,-3.51 59.1,-3.51l27.71 0c-14.81,231.84 105.51,301.74 247.47,293.12l0 -128.11c-19.15,0 -35.1,-4.34 -46.85,-12.96l-0.06 0zm476.31 141.2l32.94 -134.56c-6.9,2.55 -14.3,4.72 -23.05,6.06 -12.57,2.17 -23.87,3.51 -34.66,3.51 -36.06,0 -59.11,-9.57 -69.06,-28.21 -10.41,-18.64 -15.64,-42.51 -15.64,-71.24l0 -273.13 161.11 0 0 -154.54 -161.05 0 0 -186.64 -158.05 30 0 585.65c0,31.66 2.62,60.84 8.75,88.09 5.55,27.39 16.47,51.26 32.11,72.58 15.64,20.81 36.83,37.28 63.83,49.53 26.49,12.13 61.66,18.19 104.62,18.19 17.74,0 36.45,-1.72 55.98,-4.72l2.17 -0.57zm-2392.48 454.45l0 -129.45 522.27 0.03c81.26,0 147.46,-66.26 147.46,-147.45l0 -89.94 129.63 0 0 89.87c0,151.92 -124.98,276.91 -277.09,276.91l-522.27 0.03z"/>
  </g>
 </g>
</svg>
